<?xml version="1.0" encoding="utf-8"?>
<svg xmlns="http://www.w3.org/2000/svg" viewBox="0 0 16 16" width="16px" height="16px" xmlns:bx="https://boxy-svg.com"><defs><linearGradient gradientUnits="userSpaceOnUse" x1="7.982" y1="-0.849" x2="7.982" y2="17.137" id="gradient-0"><stop offset="0" style="stop-color: rgb(100% 0% 0%)"/><stop offset="1" style="stop-color: rgb(64.913% 0% 0%)"/></linearGradient></defs><path d="M 1.48 2.2 L 1.48 3.27 L 7.39 3.27 L 7.39 4.8 L 2.38 4.8 L 2.38 5.83 L 7.39 5.83 L 7.39 7.39 L 0.95 7.39 L 0.95 8.45 L 15.02 8.45 L 15.02 7.39 L 8.58 7.39 L 8.58 5.83 L 13.63 5.83 L 13.63 4.8 L 8.58 4.8 L 8.58 3.27 L 14.49 3.27 L 14.49 2.2 L 10.91 2.2 C 11.19 1.71 11.4 1.19 11.56 0.64 L 10.32 0.48 C 10.19 1.06 9.98 1.64 9.7 2.2 L 6.34 2.2 C 6.1 1.58 5.86 1.01 5.6 0.51 L 4.38 0.71 C 4.67 1.16 4.92 1.66 5.15 2.2 L 1.48 2.2 Z M 7.5 8.87 C 7.43 9.32 7.32 9.76 7.18 10.17 L 1.32 10.17 L 1.32 11.27 L 6.65 11.27 C 6.37 11.7 6.03 12.09 5.62 12.43 C 4.58 13.25 2.91 13.88 0.58 14.31 L 1.06 15.44 C 3.68 14.89 5.52 14.15 6.57 13.2 C 7.11 12.69 7.58 12.11 7.93 11.43 C 9 13.36 11.3 14.68 14.84 15.39 L 15.45 14.3 C 12.28 13.76 10.14 12.75 9.03 11.27 L 14.66 11.27 L 14.66 10.17 L 8.43 10.17 C 8.55 9.82 8.63 9.42 8.69 9 L 7.5 8.87 Z" style="fill: url(&quot;#gradient-0&quot;); text-wrap-mode: nowrap;"/></svg>